#!OML:ASF E:\I on waltz\AllaLogoMonkeySwing\Project 1\Capture day 1\Session 1\Subject1.ASF
:FULLY-SPECIFIED
:DEGREES
976
root 1.2257 17.7619 6.45795 178.4 179.752 535.998
lowerback 13.8689 1.9316 -1.7232
upperback 1.72062 2.40359 1.63324
thorax -6.09807 1.23588 2.24425
lowerneck -12.6029 0.0850641 -2.22327
upperneck 15.5765 0.3957 0.957489
head 6.82559 0.14424 0.712257
rclavicle 3.37934e-015 -4.57205e-015
rhumerus -29.6286 -20.8698 -70.4324
rradius 33.7058
rwrist 2.54253
rhand -7.24283 -38.2409
rfingers 7.12502
rthumb 18.6373 -67.3681
lclavicle 3.37934e-015 -4.57205e-015
lhumerus -50.209 33.4701 56.1066
lradius 38.1973
lwrist 1.19523
lhand -11.3685 -10.6343
lfingers 7.12502
lthumb 14.6655 18.827
rfemur -2.41668 -0.228953 14.8147
rtibia 45.9528
rfoot -13.4879 -7.61956
rtoes 2.71906
lfemur -5.36664 3.3078 -7.69959
ltibia 18.6831
lfoot -10.6054 1.09504
ltoes -37.3781
977
root 1.15297 17.7418 6.31241 178.523 179.807 535.811
lowerback 13.7994 1.99815 -1.30038
upperback 1.62895 2.55875 1.65922
thorax -6.14819 1.30314 2.00325
lowerneck -12.5719 -0.00464451 -2.28318
upperneck 15.4742 0.267748 1.05381
head 6.78911 0.088138 0.740555
rclavicle 1.62755e-014 2.44505e-014
rhumerus -29.2918 -20.8345 -70.549
rradius 33.6211
rwrist 3.0275
rhand -7.14396 -38.737
rfingers 7.12502
rthumb 18.7324 -67.8551
lclavicle 1.62755e-014 2.44505e-014
lhumerus -50.3639 33.9084 56.2339
lradius 38.146
lwrist 1.14798
lhand -11.6369 -10.7415
lfingers 7.12502
lthumb 14.4069 18.7385
rfemur -1.03357 0.310473 15.5042
rtibia 44.4621
rfoot -13.29 -7.1457
rtoes 2.38062
lfemur -6.17649 3.37638 -7.22659
ltibia 18.9488
lfoot -10.2486 1.0268
ltoes -37.9668
978
root 1.07453 17.7157 6.15979 178.555 180.023 535.565
lowerback 13.8213 2.0869 -0.785503
upperback 1.59039 2.75673 1.69783
thorax -6.18833 1.3881 1.71391
lowerneck -12.5073 -0.0512577 -2.32458
upperneck 15.3106 0.199854 1.11782
head 6.72629 0.0593581 0.760764
rclavicle 5.2181e-015 0
rhumerus -28.8535 -20.7515 -70.7397
rradius 33.5022
rwrist 3.28811
rhand -7.33264 -38.9052
rfingers 7.12502
rthumb 18.5509 -68.0406
lclavicle 5.2181e-015 0
lhumerus -50.4878 34.4283 56.336
lradius 38.0203
lwrist 0.970405
lhand -11.8379 -10.8963
lfingers 7.12502
lthumb 14.2132 18.5974
rfemur 0.458363 0.964645 16.3033
rtibia 42.5888
rfoot -12.6196 -6.59732
rtoes 1.5051
lfemur -6.8614 3.42056 -6.63144
ltibia 19.2003
lfoot -9.86975 1.05787
ltoes -38.3047
979
root 0.991364 17.687 6.00155 178.641 180.354 535.376
lowerback 13.7902 2.20128 -0.288543
upperback 1.5894 2.98293 1.69986
thorax -6.15571 1.4863 1.39345
lowerneck -12.653 -0.074883 -2.39273
upperneck 15.2421 0.16052 1.25792
head 6.72993 0.0492026 0.81339
rclavicle 1.33683e-014 1.61016e-014
rhumerus -28.2555 -20.6227 -71.0245
rradius 33.3165
rwrist 3.28937
rhand -7.65562 -38.8245
rfingers 7.12502
rthumb 18.2402 -67.9893
lclavicle 1.33683e-014 1.61016e-014
lhumerus -50.459 34.8926 56.5587
lradius 37.8696
lwrist 0.708424
lhand -12.0234 -11.0256
lfingers 7.12502
lthumb 14.0345 18.4806
rfemur 1.94278 1.50138 17.006
rtibia 40.3024
rfoot -12.0813 -5.99125
rtoes 0.111537
lfemur -7.58148 3.46595 -6.06828
ltibia 19.4219
lfoot -9.38677 1.16642
ltoes -38.369
980
root 0.898597 17.6542 5.83306 178.789 180.524 535.246
lowerback 13.7953 2.26853 0.168322
upperback 1.56432 3.13988 1.68221
thorax -6.16423 1.55147 1.08699
lowerneck -12.8176 -0.114539 -2.47083
upperneck 15.1723 0.109787 1.35356
head 6.73685 0.029259 0.852273
rclavicle 4.89507e-015 1.41137e-014
rhumerus -27.6137 -20.4405 -71.3195
rradius 33.1625
rwrist 3.26087
rhand -7.87282 -38.812
rfingers 7.12502
rthumb 18.0312 -67.9962
lclavicle 4.89507e-015 1.41137e-014
lhumerus -50.3099 35.1413 56.929
lradius 37.7619
lwrist 0.320924
lhand -12.1219 -10.8834
lfingers 7.12502
lthumb 13.9396 18.6293
rfemur 3.43147 1.74442 17.5964
rtibia 37.3505
rfoot -12.8766 -5.86587
rtoes -6.55018
lfemur -8.51986 3.40629 -5.55671
ltibia 19.7659
lfoot -8.85296 1.2431
ltoes -38.5309
981
root 0.798052 17.6179 5.6541 178.972 180.432 535.191
lowerback 13.8902 2.24032 0.601859
upperback 1.50484 3.16851 1.65323
thorax -6.25533 1.55368 0.802294
lowerneck -12.8722 -0.180434 -2.55125
upperneck 14.9904 0.0376865 1.35556
head 6.68942 -0.00890685 0.858609
rclavicle 1.09083e-014 8.24956e-015
rhumerus -27.0083 -20.1942 -71.6119
rradius 33.0395
rwrist 3.13481
rhand -8.31617 -38.6229
rfingers 7.12502
rthumb 17.6046 -67.8459
lclavicle 1.09083e-014 8.24956e-015
lhumerus -50.0822 35.1514 57.4696
lradius 37.7305
lwrist -0.195915
lhand -12.1067 -10.4789
lfingers 7.12502
lthumb 13.9541 19.0329
rfemur 4.83007 1.64679 18.0314
rtibia 33.9179
rfoot -15.7798 -6.78286
rtoes -7.82591
lfemur -9.68781 3.18009 -5.16882
ltibia 20.2289
lfoot -8.33967 1.30729
ltoes -38.7989
982
root 0.699557 17.5827 5.46414 179.219 180.215 535.281
lowerback 14.0251 2.13502 0.987956
upperback 1.45474 3.08728 1.59198
thorax -6.35823 1.50228 0.530026
lowerneck -13.0035 -0.200435 -2.66357
upperneck 14.8363 0.0398545 1.33818
head 6.6627 -0.014667 0.871201
rclavicle -3.0265e-014 -3.97569e-014
rhumerus -26.3333 -19.8128 -71.9613
rradius 32.9711
rwrist 2.94717
rhand -9.0338 -38.1268
rfingers 7.12502
rthumb 16.9139 -67.4103
lclavicle -3.0265e-014 -3.97569e-014
lhumerus -49.755 35.1395 58.1396
lradius 37.7453
lwrist -0.838178
lhand -11.8073 -10.0275
lfingers 7.12502
lthumb 14.2427 19.4642
rfemur 5.85781 1.22915 18.1917
rtibia 30.7886
rfoot -17.9637 -7.30442
rtoes -8.85826
lfemur -10.9818 2.78511 -5.02434
ltibia 20.6124
lfoot -7.71143 1.43783
ltoes -39.0751
983
root 0.604814 17.553 5.25991 179.478 180.236 535.045
lowerback 14.2905 2.05771 1.73328
upperback 1.431 3.10915 1.62008
thorax -6.49277 1.49155 0.12598
lowerneck -13.2923 -0.16664 -2.65859
upperneck 14.7862 0.116858 1.19793
head 6.69518 0.0114885 0.832838
rclavicle 1.40392e-014 -3.57812e-015
rhumerus -25.6341 -19.4912 -72.277
rradius 33.0351
rwrist 3.00486
rhand -9.50652 -37.5713
rfingers 7.12502
rthumb 16.4588 -66.8931
lclavicle 1.40392e-014 -3.57812e-015
lhumerus -49.3289 35.1016 58.9469
lradius 37.8735
lwrist -1.61414
lhand -11.0933 -9.58287
lfingers 7.12502
lthumb 14.9306 19.859
rfemur 6.34142 0.9195 18.7652
rtibia 28.2811
rfoot -19.7167 -7.5656
rtoes -6.10462
lfemur -12.1299 2.35674 -4.43559
ltibia 20.8011
lfoot -6.87604 1.75686
ltoes -38.9037
984
root 0.51247 17.5361 5.04425 179.857 180.667 534.501
lowerback 14.6102 2.08037 2.67504
upperback 1.36641 3.31112 1.76273
thorax -6.69343 1.56191 -0.305688
lowerneck -13.5038 -0.0820017 -2.55551
upperneck 14.5934 0.252369 0.987668
head 6.66758 0.0658133 0.76081
rclavicle 1.17562e-014 8.84592e-015
rhumerus -24.9257 -19.1316 -72.4807
rradius 33.1306
rwrist 3.04491
rhand -9.58382 -37.2301
rfingers 7.12502
rthumb 16.3844 -66.558
lclavicle 1.17562e-014 8.84592e-015
lhumerus -48.9361 34.8859 59.9369
lradius 38.1587
lwrist -2.41101
lhand -10.2785 -9.24294
lfingers 7.12502
lthumb 15.7155 20.1389
rfemur 6.10455 0.8546 19.7734
rtibia 26.4376
rfoot -20.7194 -7.90201
rtoes -3.23383
lfemur -13.0267 2.07107 -3.35804
ltibia 20.5256
lfoot -5.81185 2.27011
ltoes -38.1668
985
root 0.422553 17.5356 4.82915 180.36 181.295 534.133
lowerback 14.8432 2.18318 3.29084
upperback 1.27222 3.57029 1.9017
thorax -6.8903 1.66709 -0.567439
lowerneck -13.5365 0.0272578 -2.51279
upperneck 14.1996 0.408049 0.893094
head 6.5443 0.137604 0.73667
rclavicle 1.59556e-014 1.46355e-014
rhumerus -24.1751 -18.6942 -72.5471
rradius 33.1188
rwrist 3.23291
rhand -9.38991 -37.1784
rfingers 7.12502
rthumb 16.5711 -66.4908
lclavicle 1.59556e-014 1.46355e-014
lhumerus -48.6396 34.6478 60.9877
lradius 38.4824
lwrist -3.23525
lhand -9.62483 -9.24899
lfingers 7.12502
lthumb 16.3449 20.0822
rfemur 5.34587 0.820155 20.5766
rtibia 25.2329
rfoot -21.4399 -8.27608
rtoes -1.56429
lfemur -13.599 1.8854 -2.42916
ltibia 19.4853
lfoot -4.34753 2.75158
ltoes -37.452
986
root 0.33759 17.5483 4.62392 180.868 181.974 533.941
lowerback 14.9676 2.32635 3.66467
upperback 1.20612 3.83745 2.0084
thorax -7.00601 1.78359 -0.724591
lowerneck -13.676 0.122299 -2.41556
upperneck 13.953 0.534157 0.807778
head 6.48747 0.198148 0.70466
rclavicle 3.844e-014 2.15184e-014
rhumerus -23.4989 -18.3614 -72.4819
rradius 33.0249
rwrist 3.50964
rhand -9.23694 -37.2769
rfingers 7.12502
rthumb 16.7183 -66.577
lclavicle 3.844e-014 2.15184e-014
lhumerus -48.3378 34.3067 62.1566
lradius 38.8214
lwrist -3.9467
lhand -9.05698 -9.42038
lfingers 7.12502
lthumb 16.8916 19.865
rfemur 4.35863 0.71092 21.1356
rtibia 24.5487
rfoot -21.898 -8.61284
rtoes -0.398597
lfemur -13.7531 1.62528 -1.7186
ltibia 17.7469
lfoot -2.55836 3.30389
ltoes -36.2114
987
root 0.259631 17.5716 4.42905 181.373 182.642 533.997
lowerback 14.9946 2.47589 3.7293
upperback 1.14737 4.05407 2.07158
thorax -7.07717 1.88521 -0.740257
lowerneck -13.8651 0.27579 -2.1231
upperneck 13.8393 0.725527 0.567763
head 6.48224 0.286497 0.598193
rclavicle 2.87492e-014 3.4191e-014
rhumerus -22.931 -18.0413 -72.3262
rradius 32.805
rwrist 3.32205
rhand -9.4348 -37.2722
rfingers 7.12502
rthumb 16.5279 -66.5883
lclavicle 2.87492e-014 3.4191e-014
lhumerus -48.1189 33.6812 63.4765
lradius 39.29
lwrist -4.38308
lhand -8.47964 -9.40097
lfingers 7.12502
lthumb 17.4473 19.836
rfemur 3.24876 0.55423 21.3533
rtibia 24.2121
rfoot -22.1772 -8.80286
rtoes 0.257143
lfemur -13.5777 1.20213 -1.38054
ltibia 15.6206
lfoot -0.961908 4.30652
ltoes -33.6472
988
root 0.187015 17.5991 4.24434 181.803 183.252 534.255
lowerback 14.9691 2.59791 3.533
upperback 1.12077 4.18497 2.10987
thorax -7.1041 1.95444 -0.615907
lowerneck -13.9288 0.487558 -1.74957
upperneck 13.6098 0.987152 0.249039
head 6.41955 0.406978 0.459224
rclavicle 2.73329e-014 -2.78299e-015
rhumerus -22.4422 -17.7953 -72.0621
rradius 32.5673
rwrist 3.09042
rhand -9.7017 -37.1567
rfingers 7.12502
rthumb 16.2709 -66.494
lclavicle 2.73329e-014 -2.78299e-015
lhumerus -48.0311 32.9917 64.7496
lradius 39.8329
lwrist -4.77664
lhand -7.6311 -9.4024
lfingers 7.12502
lthumb 18.2638 19.7602
rfemur 2.22849 0.491685 21.2953
rtibia 23.9045
rfoot -22.2592 -8.72918
rtoes 0.814898
lfemur -13.199 0.639263 -1.36797
ltibia 13.5329
lfoot -0.0256331 5.76572
ltoes -29.5347
989
root 0.121858 17.6243 4.06825 182.08 183.699 534.577
lowerback 14.9767 2.61 3.28223
upperback 1.16572 4.16013 2.15153
thorax -7.08184 1.95141 -0.425833
lowerneck -14.081 0.736759 -1.38275
upperneck 13.4558 1.29896 -0.0534009
head 6.39754 0.551935 0.332251
rclavicle -1.88845e-015 -1.19271e-015
rhumerus -21.9595 -17.7529 -71.7417
rradius 32.4224
rwrist 3.09488
rhand -9.76696 -37.0957
rfingers 7.12502
rthumb 16.208 -66.4382
lclavicle -1.88845e-015 -1.19271e-015
lhumerus -48.013 32.463 65.8435
lradius 40.3497
lwrist -5.28627
lhand -6.3788 -9.52479
lfingers 7.12502
lthumb 19.4682 19.5206
rfemur 1.44462 0.482572 21.1295
rtibia 23.4847
rfoot -22.0689 -8.49292
rtoes 1.77847
lfemur -12.8261 0.131077 -1.54275
ltibia 11.9743
lfoot -1.39419 6.69279
ltoes -27.3038
